# xmcd CD database file
#
# Track frame offsets:
#	150
#	23777
#	41782
#
# Disc length: 923 seconds
#
# Revision: 0
# Processed by: cddbd v1.5.1PL0 Copyright (c) Steve Scherf et al.
# Submitted via: CDex 1.51
#
DISCID=1e039903
DTITLE=電気グルーヴ - PARKING REMIX CD
DYEAR=1996
DGENRE=Rock
TTITLE0=電気ビリビリ (皮のばし Mix)
TTITLE1=ノイ・ノイ・ノイ (Mijshol Mix)
TTITLE2=ポポ (毛糸の帽子 Mix)
EXTD=YEAR: 1996
EXTT0=
EXTT1=
EXTT2=
PLAYORDER=
